<svg width="41" height="42" viewBox="0 0 41 42" fill="none" xmlns="http://www.w3.org/2000/svg">
<rect x="0.153687" y="0.847656" width="40" height="40" fill="#1CD4D4"/>
<line x1="20.8859" y1="0.701105" x2="20.4214" y2="41.0058" stroke="white"/>
<line x1="-1.89281e-07" y1="20.3477" x2="40.3073" y2="20.3477" stroke="white"/>
<path d="M6.17712 28.8477V11.7852H12.1537C14.224 11.7852 15.7943 12.1836 16.8646 12.9805C17.9349 13.7695 18.4701 14.9297 18.4701 16.4609C18.4701 17.2969 18.2552 18.0352 17.8256 18.6758C17.3959 19.3086 16.7982 19.7734 16.0326 20.0703C16.9076 20.2891 17.5951 20.7305 18.0951 21.3945C18.6029 22.0586 18.8568 22.8711 18.8568 23.832C18.8568 25.4727 18.3334 26.7148 17.2865 27.5586C16.2396 28.4023 14.7474 28.832 12.8099 28.8477H6.17712ZM9.69275 21.418V26.0234H12.7045C13.5326 26.0234 14.1771 25.8281 14.6381 25.4375C15.1068 25.0391 15.3412 24.4922 15.3412 23.7969C15.3412 22.2344 14.5326 21.4414 12.9154 21.418H9.69275ZM9.69275 18.9336H12.2943C14.0677 18.9023 14.9545 18.1953 14.9545 16.8125C14.9545 16.0391 14.7279 15.4844 14.2748 15.1484C13.8295 14.8047 13.1224 14.6328 12.1537 14.6328H9.69275V18.9336ZM30.3529 24.3711C30.3529 23.707 30.1185 23.1992 29.6498 22.8477C29.181 22.4883 28.3373 22.1133 27.1185 21.7227C25.8998 21.3242 24.9349 20.9336 24.224 20.5508C22.2865 19.5039 21.3177 18.0938 21.3177 16.3203C21.3177 15.3984 21.5756 14.5781 22.0912 13.8594C22.6146 13.1328 23.3607 12.5664 24.3295 12.1602C25.306 11.7539 26.3998 11.5508 27.6107 11.5508C28.8295 11.5508 29.9154 11.7734 30.8685 12.2188C31.8217 12.6562 32.5599 13.2773 33.0834 14.082C33.6146 14.8867 33.8802 15.8008 33.8802 16.8242H30.3646C30.3646 16.043 30.1185 15.4375 29.6263 15.0078C29.1342 14.5703 28.4427 14.3516 27.5521 14.3516C26.6927 14.3516 26.0248 14.5352 25.5482 14.9023C25.0717 15.2617 24.8334 15.7383 24.8334 16.332C24.8334 16.8867 25.1107 17.3516 25.6654 17.7266C26.2279 18.1016 27.0521 18.4531 28.1381 18.7812C30.1381 19.3828 31.5951 20.1289 32.5092 21.0195C33.4232 21.9102 33.8802 23.0195 33.8802 24.3477C33.8802 25.8242 33.3217 26.9844 32.2045 27.8281C31.0873 28.6641 29.5834 29.082 27.6927 29.082C26.3802 29.082 25.1849 28.8438 24.1068 28.3672C23.0287 27.8828 22.2045 27.2227 21.6342 26.3867C21.0717 25.5508 20.7904 24.582 20.7904 23.4805H24.3177C24.3177 25.3633 25.4427 26.3047 27.6927 26.3047C28.5287 26.3047 29.181 26.1367 29.6498 25.8008C30.1185 25.457 30.3529 24.9805 30.3529 24.3711Z" fill="white"/>
</svg>
